<?xml version="1.0" standalone="no"?>
<!DOCTYPE svg PUBLIC "-//W3C//DTD SVG 20010904//EN"
 "http://www.w3.org/TR/2001/REC-SVG-20010904/DTD/svg10.dtd">
<svg version="1.0" xmlns="http://www.w3.org/2000/svg"
 width="512.000000pt" height="512.000000pt" viewBox="0 0 512.000000 512.000000"
 preserveAspectRatio="xMidYMid meet">

<g transform="translate(0.000000,512.000000) scale(0.100000,-0.100000)"
fill="#000000" stroke="none">
<path d="M2335 5109 c-38 -4 -117 -16 -175 -25 -1009 -157 -1833 -911 -2079
-1903 -106 -427 -106 -815 0 -1242 206 -832 828 -1512 1638 -1793 188 -65 364
-104 596 -132 472 -55 1056 66 1482 308 803 456 1286 1251 1320 2170 8 218
-18 448 -78 689 -237 956 -1013 1695 -1984 1888 -229 45 -532 62 -720 40z
m420 -260 c428 -37 831 -191 1185 -453 122 -90 366 -334 456 -456 243 -328
384 -676 445 -1095 19 -132 17 -453 -5 -599 -48 -332 -171 -660 -345 -927
-581 -892 -1666 -1272 -2668 -934 -345 117 -616 287 -884 554 -267 268 -437
538 -553 883 -87 255 -121 464 -120 743 0 271 31 464 114 715 110 335 281 617
530 873 198 205 392 347 635 467 378 185 799 265 1210 229z"/>
<path d="M2425 4669 c-993 -54 -1819 -822 -1960 -1821 -21 -149 -21 -427 0
-576 133 -945 857 -1667 1810 -1807 145 -21 423 -21 575 0 940 133 1672 866
1805 1806 21 151 21 429 0 574 -83 568 -375 1065 -820 1400 -417 312 -884 453
-1410 424z m245 -721 c57 -24 96 -61 125 -119 13 -25 242 -563 510 -1195 305
-720 488 -1166 492 -1195 23 -192 -191 -350 -368 -272 -101 45 -120 75 -265
425 l-69 168 -535 0 -535 -1 -69 -167 c-144 -345 -160 -373 -251 -417 -184
-91 -406 63 -382 264 4 29 188 476 492 1196 268 633 496 1168 507 1190 39 78
105 128 191 144 53 10 100 4 157 -21z"/>
<path d="M2413 2673 c-78 -186 -145 -346 -149 -355 -6 -17 12 -18 296 -18 284
0 302 1 296 18 -24 64 -292 692 -296 692 -3 0 -69 -152 -147 -337z"/>
</g>
</svg>
