<?xml version="1.0" standalone="no"?>
<!DOCTYPE svg PUBLIC "-//W3C//DTD SVG 20010904//EN"
 "http://www.w3.org/TR/2001/REC-SVG-20010904/DTD/svg10.dtd">
<svg version="1.0" xmlns="http://www.w3.org/2000/svg"
 width="512.000000pt" height="512.000000pt" viewBox="0 0 512.000000 512.000000"
 preserveAspectRatio="xMidYMid meet">

<g transform="translate(0.000000,512.000000) scale(0.100000,-0.100000)"
fill="#000000" stroke="none">
<path d="M1180 4286 c-168 -48 -301 -183 -345 -351 -13 -52 -15 -226 -15
-1375 0 -1449 -3 -1370 62 -1492 37 -70 135 -165 204 -198 110 -52 54 -50
1474 -50 857 0 1340 4 1369 11 119 27 251 129 309 237 65 122 62 43 62 1492 0
1449 3 1370 -62 1492 -58 108 -190 210 -309 237 -70 16 -2691 13 -2749 -3z
m2768 -230 c62 -35 107 -91 127 -160 22 -74 22 -2598 0 -2672 -20 -69 -65
-125 -127 -160 l-53 -29 -1335 0 -1335 0 -53 29 c-62 35 -107 91 -127 160 -22
73 -22 2598 -1 2670 28 91 84 150 175 182 29 11 294 13 1356 11 l1320 -2 53
-29z"/>
<path d="M1401 3766 c-31 -17 -50 -53 -51 -94 0 -49 54 -102 105 -102 50 0
105 53 105 100 0 84 -86 136 -159 96z"/>
<path d="M1719 3751 c-23 -24 -29 -38 -29 -74 0 -107 128 -145 188 -57 69 102
-72 218 -159 131z"/>
<path d="M2060 3753 c-42 -39 -49 -87 -18 -133 60 -88 188 -50 188 57 0 93
-101 138 -170 76z"/>
<path d="M1330 3028 c-27 -22 -50 -62 -50 -86 0 -49 29 -81 123 -135 50 -30
138 -81 195 -114 l103 -60 -197 -114 c-199 -115 -224 -137 -224 -191 0 -65 76
-120 136 -98 66 25 557 316 581 344 20 25 24 37 20 70 -3 22 -15 48 -29 61
-13 13 -142 92 -288 176 -213 122 -274 153 -310 156 -27 2 -51 -1 -60 -9z"/>
<path d="M2033 2208 c-57 -28 -67 -122 -17 -169 l26 -24 263 0 263 0 26 24
c51 48 40 142 -20 170 -33 14 -510 14 -541 -1z"/>
</g>
</svg>
